# Blender v2.78 (sub 0) OBJ File: ''
# www.blender.org
mtllib untitled.mtl
o key_rr
v -4.344526 1.409859 1.644571
v -3.405261 6.336841 -1.171631
v -4.344525 1.409859 -1.644617
v -3.405261 6.336841 1.171586
v 4.811374 1.409859 1.644572
v 3.872107 6.336842 -1.171631
v 3.872107 6.336842 1.171587
v 4.811374 1.409859 -1.644617
v -3.129323 15.456783 0.552233
v -3.129323 16.782093 0.552233
v -3.129322 16.782093 -0.552279
v -3.129322 15.456783 -0.552279
v -1.664873 16.782093 0.552233
v -1.664873 18.107403 0.552234
v -1.664873 18.107403 -0.552278
v -1.664873 16.782093 -0.552278
v -3.129323 18.107403 0.552233
v -3.129323 19.432713 0.552233
v -3.129323 19.432713 -0.552278
v -3.129323 18.107403 -0.552279
v -3.129323 16.782093 0.552233
v -1.664873 16.782093 0.552233
v -1.664873 16.782093 -0.552278
v -3.129322 16.782093 -0.552279
v -3.129323 18.107403 0.552233
v -1.664873 18.107403 -0.552278
v -1.664873 18.107403 0.552234
v -3.129323 18.107403 -0.552279
v -3.129323 15.456783 0.552233
v -0.200423 15.456783 -0.552278
v -0.200423 15.456783 0.552234
v -3.129322 15.456783 -0.552279
v -3.129323 19.432713 0.552233
v -0.200423 19.432713 -0.552278
v -3.129323 19.432713 -0.552278
v -0.200423 19.432713 0.552234
v -0.746034 6.352267 0.000070
v -0.746035 20.083147 0.000071
v -0.262863 20.083147 -0.869993
v -0.262862 6.352267 -0.869994
v 0.703470 20.083147 -0.869993
v 0.703471 6.352267 -0.869994
v 1.186643 6.352267 0.000070
v 1.186642 20.083147 0.000071
v 0.703471 6.352267 0.870133
v 0.703470 20.083147 0.870134
v -0.262863 6.352267 0.870133
v -0.262863 20.083147 0.870134
v -3.129323 16.782093 0.552233
v -3.129323 15.456783 0.552233
v -1.664873 16.782093 0.552233
v -0.200423 15.456783 0.552234
v -1.664873 18.107403 0.552234
v -0.200423 19.432713 0.552234
v -3.129323 19.432713 0.552233
v -3.129323 18.107403 0.552233
v -3.405261 6.336841 1.171586
v -1.585918 6.336841 -1.171631
v -3.405261 6.336841 -1.171631
v -1.585918 6.336841 1.171587
v 0.233424 6.336842 -1.171631
v 0.233423 6.336842 1.171587
v 2.052766 6.336842 1.171587
v 2.052766 6.336842 -1.171631
v 3.872107 6.336842 1.171587
v 3.872107 6.336842 -1.171631
v 4.811374 1.409859 1.644572
v 2.522398 0.039625 -1.776494
v 4.811374 1.409859 -1.644617
v 2.522398 0.039625 1.776449
v 0.233424 0.039625 -1.776494
v 0.233424 0.039625 1.776449
v -2.055552 0.039625 1.776449
v -2.055552 0.039625 -1.776495
v -4.344525 1.409859 -1.644617
v -4.344526 1.409859 1.644571
v -1.664873 16.782093 -0.552278
v -3.129322 15.456783 -0.552279
v -3.129322 16.782093 -0.552279
v -0.200423 15.456783 -0.552278
v -1.664873 18.107403 -0.552278
v -0.200423 19.432713 -0.552278
v -3.129323 19.432713 -0.552278
v -3.129323 18.107403 -0.552279
v -4.344526 1.409859 1.644571
v -1.585918 6.336841 1.171587
v -3.405261 6.336841 1.171586
v -2.055552 0.039625 1.776449
v 0.233424 0.039625 1.776449
v 0.233423 6.336842 1.171587
v 2.052766 6.336842 1.171587
v 2.522398 0.039625 1.776449
v 4.811374 1.409859 1.644572
v 3.872107 6.336842 1.171587
v -1.585918 6.336841 -1.171631
v -4.344525 1.409859 -1.644617
v -3.405261 6.336841 -1.171631
v -2.055552 0.039625 -1.776495
v 0.233424 0.039625 -1.776494
v 0.233424 6.336842 -1.171631
v 2.052766 6.336842 -1.171631
v 2.522398 0.039625 -1.776494
v 4.811374 1.409859 -1.644617
v 3.872107 6.336842 -1.171631
v -0.262863 20.083147 -0.869993
v 1.186642 20.083147 0.000071
v 0.703470 20.083147 -0.869993
v -0.746035 20.083147 0.000071
v -0.262863 20.083147 0.870134
v 0.703470 20.083147 0.870134
vt 0.3831 0.5913
vt 0.3445 0.7495
vt 0.1364 0.5552
vt 0.1089 0.6680
vt 0.1113 0.0918
vt 0.3477 0.0122
vt 0.1378 0.2046
vt 0.3850 0.1709
vt 0.6069 0.2139
vt 0.6592 0.1509
vt 0.6592 0.2139
vt 0.6069 0.1509
vt 0.6069 0.3457
vt 0.6592 0.2832
vt 0.6592 0.3457
vt 0.6069 0.2832
vt 0.6069 0.4780
vt 0.6592 0.4150
vt 0.6592 0.4780
vt 0.6069 0.4150
vt 0.6069 0.2832
vt 0.6592 0.2139
vt 0.6592 0.2832
vt 0.6069 0.2139
vt 0.6592 0.3457
vt 0.6592 0.4150
vt 0.6069 0.3457
vt 0.6069 0.4150
vt 0.6592 0.0122
vt 0.6592 0.1509
vt 0.6069 0.0122
vt 0.6069 0.1509
vt 0.6069 0.4780
vt 0.6592 0.4780
vt 0.6069 0.6167
vt 0.6592 0.6167
vt 0.9175 0.6567
vt 0.9644 0.0063
vt 0.9644 0.6567
vt 0.9175 0.0063
vt 0.8716 0.6567
vt 0.8716 0.0063
vt 0.8242 0.0063
vt 0.8242 0.6567
vt 0.7773 0.0063
vt 0.7773 0.6567
vt 0.7314 0.0063
vt 0.7314 0.6567
vt 0.6841 0.6567
vt 0.6841 0.0063
vt 0.3076 0.8429
vt 0.3076 0.9123
vt 0.2449 0.9123
vt 0.2449 0.7736
vt 0.3704 0.8429
vt 0.4333 0.7736
vt 0.4333 0.9123
vt 0.3704 0.9123
vt 0.1364 0.5552
vt 0.0215 0.5571
vt 0.1338 0.4668
vt 0.0203 0.4678
vt 0.1332 0.3799
vt 0.0203 0.3794
vt 0.0211 0.2910
vt 0.1345 0.2935
vt 0.0230 0.2017
vt 0.1378 0.2046
vt 0.3850 0.1709
vt 0.5420 0.1353
vt 0.4194 0.2856
vt 0.5771 0.2612
vt 0.4187 0.3813
vt 0.5879 0.3818
vt 0.5762 0.5024
vt 0.4187 0.4766
vt 0.3831 0.5913
vt 0.5400 0.6282
vt 0.1506 0.9127
vt 0.1506 0.8434
vt 0.2135 0.9127
vt 0.2135 0.7740
vt 0.0879 0.8434
vt 0.0251 0.7740
vt 0.0251 0.9127
vt 0.0879 0.9127
vt 0.8525 0.9830
vt 0.8975 0.7485
vt 0.7666 0.9830
vt 0.7886 0.6833
vt 0.6802 0.6833
vt 0.6802 0.9830
vt 0.5942 0.9830
vt 0.5718 0.6833
vt 0.4636 0.7485
vt 0.5078 0.9830
vt 0.1364 0.5552
vt 0.1338 0.4668
vt 0.3831 0.5913
vt 0.4187 0.4766
vt 0.4187 0.3813
vt 0.1332 0.3799
vt 0.1345 0.2935
vt 0.4194 0.2856
vt 0.3850 0.1709
vt 0.1378 0.2046
vt 0.8950 0.6968
vt 0.9175 0.6567
vt 0.9199 0.7368
vt 0.9644 0.6567
vt 0.9893 0.6968
vt 0.9673 0.7368
vn -0.9823 0.1873 -0.0000
vn 0.9823 0.1873 0.0000
vn -1.0000 -0.0000 -0.0000
vn 0.0000 1.0000 0.0000
vn 0.0000 -1.0000 0.0000
vn -0.8742 -0.0000 -0.4855
vn 0.0000 0.0000 -1.0000
vn 0.8742 0.0000 -0.4855
vn 0.8742 0.0000 0.4855
vn -0.0000 -0.0000 1.0000
vn -0.8742 -0.0000 0.4855
vn 0.5136 -0.8580 0.0000
vn -0.5136 -0.8580 -0.0000
vn -0.0000 0.0956 0.9954
vn -0.0001 0.0956 0.9954
vn 0.0001 0.0956 0.9954
vn 0.0000 0.0956 -0.9954
vn -0.0001 0.0956 -0.9954
vn 0.0001 0.0956 -0.9954
usemtl pskmat0
s off
f 3/1/1 1/2/1 2/3/1
f 4/4/1 2/3/1 1/2/1
f 7/5/2 5/6/2 6/7/2
f 8/8/2 6/7/2 5/6/2
f 11/9/3 9/10/3 10/11/3
f 12/12/3 9/10/3 11/9/3
f 15/13/3 13/14/3 14/15/3
f 16/16/3 13/14/3 15/13/3
f 19/17/3 17/18/3 18/19/3
f 20/20/3 17/18/3 19/17/3
f 23/21/4 21/22/4 22/23/4
f 24/24/4 21/22/4 23/21/4
f 27/25/5 25/26/5 26/27/5
f 28/28/5 26/27/5 25/26/5
f 31/29/5 29/30/5 30/31/5
f 32/32/5 30/31/5 29/30/5
f 35/33/4 33/34/4 34/35/4
f 36/36/4 34/35/4 33/34/4
f 39/37/6 37/38/6 38/39/6
f 40/40/6 37/38/6 39/37/6
f 41/41/7 40/40/7 39/37/7
f 40/40/7 41/41/7 42/42/7
f 42/42/8 41/41/8 43/43/8
f 44/44/8 43/43/8 41/41/8
f 43/43/9 44/44/9 45/45/9
f 46/46/9 45/45/9 44/44/9
f 45/45/10 46/46/10 47/47/10
f 48/48/10 47/47/10 46/46/10
f 38/49/11 47/47/11 48/48/11
f 37/50/11 47/47/11 38/49/11
f 51/51/10 49/52/10 50/53/10
f 52/54/10 51/51/10 50/53/10
f 51/51/10 52/54/10 53/55/10
f 53/55/10 52/54/10 54/56/10
f 54/56/10 55/57/10 53/55/10
f 53/55/10 55/57/10 56/58/10
f 59/59/4 57/60/4 58/61/4
f 60/62/4 58/61/4 57/60/4
f 58/61/4 60/62/4 61/63/4
f 62/64/4 61/63/4 60/62/4
f 62/64/4 63/65/4 61/63/4
f 64/66/4 61/63/4 63/65/4
f 63/65/4 65/67/4 64/66/4
f 66/68/4 64/66/4 65/67/4
f 69/69/12 67/70/12 68/71/12
f 68/71/12 67/70/12 70/72/12
f 68/71/5 70/72/5 71/73/5
f 71/73/5 70/72/5 72/74/5
f 72/74/5 73/75/5 71/73/5
f 74/76/5 71/73/5 73/75/5
f 74/76/13 73/75/13 75/77/13
f 76/78/13 75/77/13 73/75/13
f 79/79/7 77/80/7 78/81/7
f 77/80/7 80/82/7 78/81/7
f 77/80/7 81/83/7 80/82/7
f 82/84/7 80/82/7 81/83/7
f 83/85/7 82/84/7 81/83/7
f 84/86/7 83/85/7 81/83/7
f 87/87/14 85/88/14 86/89/14
f 85/88/15 88/90/15 86/89/15
f 88/90/14 89/91/14 86/89/14
f 90/92/14 86/89/14 89/91/14
f 90/92/14 89/91/14 91/93/14
f 92/94/14 91/93/14 89/91/14
f 93/95/16 91/93/16 92/94/16
f 94/96/14 91/93/14 93/95/14
f 97/97/17 95/98/17 96/99/17
f 98/100/18 96/99/18 95/98/18
f 99/101/17 98/100/17 95/98/17
f 100/102/17 99/101/17 95/98/17
f 100/102/17 101/103/17 99/101/17
f 102/104/17 99/101/17 101/103/17
f 102/104/19 101/103/19 103/105/19
f 104/106/17 103/105/17 101/103/17
f 107/107/4 105/108/4 106/109/4
f 105/108/4 108/110/4 106/109/4
f 108/110/4 109/111/4 106/109/4
f 110/112/4 106/109/4 109/111/4
