# Blender v2.78 (sub 0) OBJ File: ''
# www.blender.org
mtllib untitled.mtl
o lockpick
v 2.289026 8.533227 0.471213
v 2.289026 26.043671 0.471212
v -2.175374 26.043671 0.471212
v -2.175374 8.533227 0.471213
v 2.289026 26.043671 0.471212
v -0.719268 27.457022 0.377117
v -2.175374 26.043671 0.471212
v 0.832920 27.457022 0.377117
v -0.679266 6.384878 0.377118
v 2.289026 8.533227 0.471213
v -2.175374 8.533227 0.471213
v 0.792919 6.384878 0.377118
v 2.289026 26.043671 -0.548077
v 2.289026 8.533227 -0.548076
v -2.175374 26.043671 -0.548077
v -2.175374 8.533227 -0.548076
v 2.289026 26.043671 -0.548077
v -2.175374 26.043671 -0.548077
v -0.719268 27.457022 -0.453982
v 0.832920 27.457022 -0.453982
v 2.289026 8.533227 -0.548076
v -0.679266 6.384878 -0.453981
v -2.175374 8.533227 -0.548076
v 0.792919 6.384878 -0.453981
v 0.124411 36.483849 -0.453984
v 1.734659 37.431114 0.377115
v 0.124411 36.483849 0.377115
v 1.734659 37.431114 -0.453984
v 1.734659 37.431114 -0.453984
v 0.639690 38.378368 -0.453984
v 0.639690 38.378368 0.377115
v 1.734659 37.431114 0.377115
v -0.912497 38.378368 -0.453984
v 0.182471 37.431114 0.377115
v -0.912497 38.378368 0.377115
v 0.182471 37.431114 -0.453984
v 0.639690 39.159065 -0.453984
v -0.912497 39.159065 -0.453984
v -0.912497 39.159065 0.377115
v 0.639690 39.159065 0.377115
v -2.175374 26.043671 -0.548077
v -0.719268 27.457022 0.377117
v -0.719268 27.457022 -0.453982
v -2.175374 26.043671 0.471212
v 2.289026 26.043671 -0.548077
v 2.289026 8.533227 0.471213
v 2.289026 8.533227 -0.548076
v 2.289026 26.043671 0.471212
v 0.792919 0.043195 0.377119
v -0.679266 0.043195 0.377119
v -0.679266 0.043195 -0.453980
v 0.792919 0.043195 -0.453980
v -0.004409 34.244381 -0.453983
v -0.004409 34.244381 0.377116
v 0.832920 33.000034 -0.453983
v 0.832920 33.000034 0.377116
v 1.734659 35.468330 0.377116
v -0.004409 34.244381 0.377116
v -0.004409 34.244381 -0.453983
v 1.734659 35.468330 -0.453984
v 1.734659 35.468330 -0.453984
v 0.124411 36.483849 -0.453984
v 0.124411 36.483849 0.377115
v 1.734659 35.468330 0.377116
v 0.182471 37.431114 -0.453984
v -1.427777 36.483849 -0.453984
v -1.427777 36.483849 0.377115
v 0.182471 37.431114 0.377115
v -0.719268 33.000034 -0.453983
v -0.719268 27.457022 0.377117
v -0.719268 33.000034 0.377116
v -0.719268 27.457022 -0.453982
v 0.639690 39.159065 -0.453984
v 0.639690 38.378368 0.377115
v 0.639690 38.378368 -0.453984
v 0.639690 39.159065 0.377115
v -2.175374 8.533227 -0.548076
v -0.679266 6.384878 0.377118
v -2.175374 8.533227 0.471213
v -0.679266 6.384878 -0.453981
v 0.832920 33.000034 -0.453983
v 0.832920 27.457022 0.377117
v 0.832920 27.457022 -0.453982
v 0.832920 33.000034 0.377116
v -0.912497 39.159065 -0.453984
v -0.912497 38.378368 0.377115
v -0.912497 39.159065 0.377115
v -0.912497 38.378368 -0.453984
v 2.289026 26.043671 -0.548077
v 0.832920 27.457022 -0.453982
v 0.832920 27.457022 0.377117
v 2.289026 26.043671 0.471212
v -2.175374 26.043671 -0.548077
v -2.175374 8.533227 0.471213
v -2.175374 26.043671 0.471212
v -2.175374 8.533227 -0.548076
v -0.679266 0.712224 0.377119
v -0.679266 0.043195 -0.453980
v -0.679266 0.043195 0.377119
v -0.679266 0.712224 -0.453980
v 2.289026 8.533227 -0.548076
v 0.792919 6.384878 0.377118
v 0.792919 6.384878 -0.453981
v 2.289026 8.533227 0.471213
v -1.556597 34.244381 0.377116
v -0.719268 33.000034 -0.453983
v -0.719268 33.000034 0.377116
v -1.556597 34.244381 -0.453983
v 0.182471 35.468330 -0.453984
v -1.556597 34.244381 -0.453983
v -1.556597 34.244381 0.377116
v 0.182471 35.468330 0.377116
v 0.182471 35.468330 0.377116
v -1.427777 36.483849 0.377115
v -1.427777 36.483849 -0.453984
v 0.182471 35.468330 -0.453984
v -0.679266 1.547702 -0.453981
v -2.460037 0.712224 -0.453980
v -2.460037 0.712224 0.377119
v -0.679266 1.547702 0.377119
v -2.460037 0.712224 -0.453980
v -0.679266 0.712224 0.377119
v -2.460037 0.712224 0.377119
v -0.679266 0.712224 -0.453980
v 0.792919 6.384878 0.377118
v -0.679266 6.384878 0.377118
v 0.792919 4.206041 0.377118
v -0.679266 4.206041 0.377118
v 0.792919 1.547702 0.377119
v -0.679266 1.547702 0.377119
v 0.792919 0.712224 0.377119
v -0.679266 0.712224 0.377119
v -2.460037 0.712224 0.377119
v 0.792919 0.043195 0.377119
v -0.679266 0.043195 0.377119
v 0.792919 6.384878 -0.453981
v 0.792919 4.206041 -0.453981
v -0.679266 6.384878 -0.453981
v -0.679266 4.206041 -0.453981
v 0.792919 1.547702 -0.453981
v -0.679266 1.547702 -0.453981
v 0.792919 0.712224 -0.453980
v -0.679266 0.712224 -0.453980
v -2.460037 0.712224 -0.453980
v 0.792919 0.043195 -0.453980
v -0.679266 0.043195 -0.453980
v -0.679266 1.547702 0.377119
v -0.679266 4.206041 -0.453981
v -0.679266 1.547702 -0.453981
v -0.679266 4.206041 0.377118
v -0.679266 6.384878 -0.453981
v -0.679266 6.384878 0.377118
v 0.792919 0.712224 0.377119
v 0.792919 0.043195 0.377119
v 0.792919 0.043195 -0.453980
v 0.792919 0.712224 -0.453980
v 0.792919 1.547702 0.377119
v 0.792919 1.547702 -0.453981
v 0.792919 4.206041 0.377118
v 0.792919 4.206041 -0.453981
v 0.792919 6.384878 -0.453981
v 0.792919 6.384878 0.377118
v 0.832920 27.457022 0.377117
v -0.719268 33.000034 0.377116
v -0.719268 27.457022 0.377117
v 0.832920 33.000034 0.377116
v -0.004409 34.244381 0.377116
v -1.556597 34.244381 0.377116
v 0.182471 35.468330 0.377116
v 1.734659 35.468330 0.377116
v 0.124411 36.483849 0.377115
v -1.427777 36.483849 0.377115
v 0.182471 37.431114 0.377115
v 1.734659 37.431114 0.377115
v 0.639690 38.378368 0.377115
v -0.912497 38.378368 0.377115
v -0.912497 39.159065 0.377115
v 0.639690 39.159065 0.377115
v -0.719268 33.000034 -0.453983
v 0.832920 27.457022 -0.453982
v -0.719268 27.457022 -0.453982
v 0.832920 33.000034 -0.453983
v -0.004409 34.244381 -0.453983
v -1.556597 34.244381 -0.453983
v 0.182471 35.468330 -0.453984
v 1.734659 35.468330 -0.453984
v 0.124411 36.483849 -0.453984
v -1.427777 36.483849 -0.453984
v 0.182471 37.431114 -0.453984
v 1.734659 37.431114 -0.453984
v 0.639690 38.378368 -0.453984
v -0.912497 38.378368 -0.453984
v -0.912497 39.159065 -0.453984
v 0.639690 39.159065 -0.453984
vt 0.0414 0.9013
vt 0.2380 0.1304
vt 0.2379 0.9013
vt 0.0414 0.1304
vt 0.0414 0.9013
vt 0.2379 0.9013
vt 0.1055 0.9636
vt 0.1738 0.9636
vt 0.0414 0.1304
vt 0.1073 0.0356
vt 0.2380 0.1304
vt 0.1721 0.0356
vt 0.2379 0.9013
vt 0.0414 0.9013
vt 0.0414 0.1304
vt 0.2379 0.1304
vt 0.1738 0.9636
vt 0.0414 0.9013
vt 0.2379 0.9013
vt 0.1055 0.9636
vt 0.2379 0.1304
vt 0.0414 0.1304
vt 0.1721 0.0356
vt 0.1073 0.0356
vt 0.9453 0.5000
vt 0.9634 0.5000
vt 0.9453 0.5820
vt 0.9634 0.5820
vt 0.9453 0.6460
vt 0.9634 0.5820
vt 0.9634 0.6460
vt 0.9453 0.5820
vt 0.9209 0.6460
vt 0.9033 0.6460
vt 0.9209 0.5820
vt 0.9033 0.5820
vt 0.9209 0.6802
vt 0.9033 0.7485
vt 0.9033 0.6802
vt 0.9209 0.7485
vt 0.8174 0.9879
vt 0.8154 0.8985
vt 0.8350 0.9879
vt 0.8369 0.8985
vt 0.7910 0.1274
vt 0.7910 0.8985
vt 0.7690 0.1274
vt 0.7690 0.8985
vt 0.8789 0.4199
vt 0.8613 0.4849
vt 0.8613 0.4199
vt 0.8789 0.4849
vt 0.9634 0.2563
vt 0.9634 0.3228
vt 0.9453 0.3228
vt 0.9453 0.2563
vt 0.9634 0.3228
vt 0.9453 0.4160
vt 0.9453 0.3228
vt 0.9634 0.4160
vt 0.9453 0.5000
vt 0.9634 0.4160
vt 0.9634 0.5000
vt 0.9453 0.4160
vt 0.9209 0.5000
vt 0.9033 0.5820
vt 0.9033 0.5000
vt 0.9209 0.5820
vt 0.9209 0.2563
vt 0.9033 0.2563
vt 0.9209 0.0122
vt 0.9033 0.0122
vt 0.9634 0.6460
vt 0.9634 0.6802
vt 0.9453 0.6460
vt 0.9453 0.6802
vt 0.8369 0.1274
vt 0.8154 0.1274
vt 0.8350 0.0122
vt 0.8174 0.0122
vt 0.9634 0.0122
vt 0.9634 0.2563
vt 0.9453 0.0122
vt 0.9453 0.2563
vt 0.9209 0.6802
vt 0.9033 0.6802
vt 0.9209 0.6460
vt 0.9033 0.6460
vt 0.7715 0.9879
vt 0.7910 0.8985
vt 0.7891 0.9879
vt 0.7690 0.8985
vt 0.8369 0.8985
vt 0.8154 0.8985
vt 0.8369 0.1274
vt 0.8154 0.1274
vt 0.8613 0.4199
vt 0.8613 0.3906
vt 0.8789 0.4199
vt 0.8789 0.3906
vt 0.7891 0.0122
vt 0.7910 0.1274
vt 0.7715 0.0122
vt 0.7690 0.1274
vt 0.9209 0.2563
vt 0.9209 0.3228
vt 0.9033 0.2563
vt 0.9033 0.3228
vt 0.9209 0.3228
vt 0.9033 0.4160
vt 0.9033 0.3228
vt 0.9209 0.4160
vt 0.9033 0.5000
vt 0.9209 0.4160
vt 0.9209 0.5000
vt 0.9033 0.4160
vt 0.8613 0.3120
vt 0.8789 0.2256
vt 0.8789 0.3120
vt 0.8613 0.2256
vt 0.8613 0.3120
vt 0.8789 0.3120
vt 0.8613 0.3906
vt 0.8789 0.3906
vt 0.5146 0.7859
vt 0.5146 0.8818
vt 0.4502 0.8818
vt 0.4502 0.7859
vt 0.5146 0.6689
vt 0.4502 0.6689
vt 0.5151 0.6321
vt 0.4502 0.6321
vt 0.3718 0.6321
vt 0.5151 0.6028
vt 0.4502 0.6025
vt 0.4502 0.8818
vt 0.5151 0.8818
vt 0.5151 0.7859
vt 0.4502 0.7859
vt 0.5151 0.6689
vt 0.4502 0.6689
vt 0.5151 0.6321
vt 0.4502 0.6321
vt 0.3718 0.6321
vt 0.5151 0.6025
vt 0.4502 0.6025
vt 0.8789 0.2256
vt 0.8613 0.2256
vt 0.8789 0.1084
vt 0.8613 0.1084
vt 0.8789 0.0122
vt 0.8613 0.0122
vt 0.8789 0.4849
vt 0.8613 0.5142
vt 0.8613 0.4849
vt 0.8789 0.5142
vt 0.8613 0.5508
vt 0.8789 0.5508
vt 0.8613 0.6680
vt 0.8789 0.6680
vt 0.8789 0.7638
vt 0.8613 0.7638
vt 0.6011 0.0200
vt 0.6689 0.0278
vt 0.5732 0.2627
vt 0.6416 0.2705
vt 0.5986 0.3208
vt 0.5308 0.3130
vt 0.6006 0.3750
vt 0.6685 0.3828
vt 0.5933 0.4194
vt 0.5254 0.4116
vt 0.5908 0.4609
vt 0.6592 0.4688
vt 0.6064 0.5046
vt 0.5386 0.4971
vt 0.5347 0.5312
vt 0.6025 0.5388
vt 0.4133 0.0142
vt 0.4133 0.2583
vt 0.3450 0.0142
vt 0.3450 0.2583
vt 0.3818 0.3130
vt 0.4502 0.3130
vt 0.3738 0.3672
vt 0.3054 0.3672
vt 0.3762 0.4116
vt 0.4446 0.4116
vt 0.3738 0.4536
vt 0.3054 0.4536
vt 0.3535 0.4951
vt 0.4219 0.4951
vt 0.4219 0.5295
vt 0.3535 0.5295
vn 0.0000 0.0000 1.0000
vn 0.0000 0.0664 0.9978
vn 0.0000 -0.0438 0.9990
vn 0.0000 -0.0000 -1.0000
vn 0.0000 0.0664 -0.9978
vn 0.0000 -0.0438 -0.9990
vn 0.5070 -0.8619 0.0000
vn 0.6543 0.7563 0.0000
vn -0.6543 -0.7563 0.0000
vn 0.0000 1.0000 0.0000
vn -0.6965 0.7176 0.0000
vn 1.0000 0.0000 0.0000
vn 0.0000 -1.0000 0.0000
vn 0.8297 0.5583 0.0000
vn 0.5755 -0.8178 0.0000
vn 0.5334 0.8458 0.0000
vn -0.5070 0.8619 0.0000
vn -1.0000 -0.0000 0.0000
vn -0.8206 -0.5715 0.0000
vn 0.6965 0.7176 0.0000
vn 0.8206 -0.5715 0.0000
vn -0.8297 -0.5583 0.0000
vn -0.5755 0.8178 0.0000
vn -0.5334 -0.8458 0.0000
vn -0.4247 0.9053 -0.0000
usemtl pskmat0
s off
f 3/1/1 1/2/1 2/3/1
f 1/2/1 3/1/1 4/4/1
f 7/5/2 5/6/2 6/7/2
f 8/8/2 6/7/2 5/6/2
f 11/9/3 9/10/3 10/11/3
f 12/12/3 10/11/3 9/10/3
f 15/13/4 13/14/4 14/15/4
f 16/16/4 15/13/4 14/15/4
f 19/17/5 17/18/5 18/19/5
f 20/20/5 17/18/5 19/17/5
f 23/21/6 21/22/6 22/23/6
f 24/24/6 22/23/6 21/22/6
f 27/25/7 25/26/7 26/27/7
f 28/28/7 26/27/7 25/26/7
f 31/29/8 29/30/8 30/31/8
f 32/32/8 29/30/8 31/29/8
f 35/33/9 33/34/9 34/35/9
f 36/36/9 34/35/9 33/34/9
f 39/37/10 37/38/10 38/39/10
f 40/40/10 37/38/10 39/37/10
f 43/41/11 41/42/11 42/43/11
f 44/44/11 42/43/11 41/42/11
f 47/45/12 45/46/12 46/47/12
f 48/48/12 46/47/12 45/46/12
f 51/49/13 49/50/13 50/51/13
f 52/52/13 49/50/13 51/49/13
f 55/53/14 53/54/14 54/55/14
f 55/53/14 54/55/14 56/56/14
f 59/57/15 57/58/15 58/59/15
f 60/60/15 57/58/15 59/57/15
f 63/61/16 61/62/16 62/63/16
f 64/64/16 61/62/16 63/61/16
f 67/65/17 65/66/17 66/67/17
f 68/68/17 65/66/17 67/65/17
f 71/69/18 69/70/18 70/71/18
f 72/72/18 70/71/18 69/70/18
f 75/73/12 73/74/12 74/75/12
f 76/76/12 74/75/12 73/74/12
f 79/77/19 77/78/19 78/79/19
f 80/80/19 78/79/19 77/78/19
f 83/81/12 81/82/12 82/83/12
f 84/84/12 82/83/12 81/82/12
f 87/85/18 85/86/18 86/87/18
f 88/88/18 86/87/18 85/86/18
f 91/89/20 89/90/20 90/91/20
f 92/92/20 89/90/20 91/89/20
f 95/93/18 93/94/18 94/95/18
f 96/96/18 94/95/18 93/94/18
f 99/97/18 97/98/18 98/99/18
f 100/100/18 98/99/18 97/98/18
f 103/101/21 101/102/21 102/103/21
f 104/104/21 102/103/21 101/102/21
f 107/105/22 105/106/22 106/107/22
f 108/108/22 106/107/22 105/106/22
f 111/109/23 109/110/23 110/111/23
f 112/112/23 109/110/23 111/109/23
f 115/113/24 113/114/24 114/115/24
f 116/116/24 113/114/24 115/113/24
f 119/117/25 117/118/25 118/119/25
f 120/120/25 117/118/25 119/117/25
f 123/121/13 121/122/13 122/123/13
f 124/124/13 122/123/13 121/122/13
f 127/125/1 125/126/1 126/127/1
f 127/125/1 126/127/1 128/128/1
f 128/128/1 129/129/1 127/125/1
f 129/129/1 128/128/1 130/130/1
f 131/131/1 129/129/1 130/130/1
f 130/130/1 132/132/1 131/131/1
f 132/132/1 130/130/1 133/133/1
f 134/134/1 131/131/1 132/132/1
f 132/132/1 135/135/1 134/134/1
f 138/136/4 136/137/4 137/138/4
f 139/139/4 138/136/4 137/138/4
f 139/139/4 137/138/4 140/140/4
f 141/141/4 139/139/4 140/140/4
f 142/142/4 141/141/4 140/140/4
f 143/143/4 141/141/4 142/142/4
f 144/144/4 141/141/4 143/143/4
f 145/145/4 143/143/4 142/142/4
f 146/146/4 143/143/4 145/145/4
f 149/147/18 147/148/18 148/149/18
f 150/150/18 148/149/18 147/148/18
f 148/149/18 150/150/18 151/151/18
f 152/152/18 151/151/18 150/150/18
f 155/153/12 153/154/12 154/155/12
f 155/153/12 156/156/12 153/154/12
f 156/156/12 157/157/12 153/154/12
f 156/156/12 158/158/12 157/157/12
f 158/158/12 159/159/12 157/157/12
f 159/159/12 158/158/12 160/160/12
f 160/160/12 161/161/12 159/159/12
f 162/162/12 159/159/12 161/161/12
f 165/163/1 163/164/1 164/165/1
f 166/166/1 164/165/1 163/164/1
f 166/166/1 167/167/1 164/165/1
f 168/168/1 164/165/1 167/167/1
f 168/168/1 167/167/1 169/169/1
f 169/169/1 167/167/1 170/170/1
f 170/170/1 171/171/1 169/169/1
f 172/172/1 169/169/1 171/171/1
f 173/173/1 172/172/1 171/171/1
f 173/173/1 171/171/1 174/174/1
f 174/174/1 175/175/1 173/173/1
f 176/176/1 173/173/1 175/175/1
f 176/176/1 175/175/1 177/177/1
f 178/178/1 177/177/1 175/175/1
f 181/179/4 179/180/4 180/181/4
f 179/180/4 182/182/4 180/181/4
f 182/182/4 179/180/4 183/183/4
f 184/184/4 183/183/4 179/180/4
f 183/183/4 184/184/4 185/185/4
f 185/185/4 186/186/4 183/183/4
f 186/186/4 185/185/4 187/187/4
f 188/188/4 187/187/4 185/185/4
f 187/187/4 188/188/4 189/189/4
f 189/189/4 190/190/4 187/187/4
f 190/190/4 189/189/4 191/191/4
f 192/192/4 191/191/4 189/189/4
f 192/192/4 193/193/4 191/191/4
f 191/191/4 193/193/4 194/194/4
